<?xml version="1.0" standalone="no"?>
<!DOCTYPE svg PUBLIC "-//W3C//DTD SVG 20010904//EN"
 "http://www.w3.org/TR/2001/REC-SVG-20010904/DTD/svg10.dtd">
<svg version="1.0" xmlns="http://www.w3.org/2000/svg"
 width="300.000000pt" height="300.000000pt" viewBox="0 0 300.000000 300.000000"
 preserveAspectRatio="xMidYMid meet">

<g transform="translate(0.000000,300.000000) scale(0.100000,-0.100000)"
fill="#007bff" stroke="none">
<path d="M795 2755 c-334 -73 -598 -315 -720 -658 -51 -144 -69 -273 -62 -457
8 -222 40 -354 132 -545 48 -98 119 -215 175 -285 l20 -25 -22 -45 c-18 -36
-23 -62 -23 -127 0 -74 3 -85 30 -124 74 -105 219 -119 333 -32 l34 26 37 -22
c96 -57 258 -133 352 -164 161 -54 283 -71 463 -64 260 10 480 76 708 214 l58
34 33 -25 c69 -53 178 -71 248 -42 107 45 149 186 96 317 l-23 56 62 83 c165
219 252 479 261 780 6 181 -6 271 -54 424 -128 407 -494 696 -881 696 -165 0
-346 -54 -478 -142 l-73 -49 -60 40 c-186 126 -444 181 -646 136z m280 -90
c333 -58 581 -303 613 -603 5 -42 5 -106 2 -142 -5 -43 -7 -52 -8 -27 -2 30
-6 38 -19 36 -29 -2 -43 0 -41 9 5 19 -27 92 -38 88 -6 -2 -14 4 -17 14 -3 13
-1 17 10 13 13 -5 13 -3 2 16 -15 23 -39 28 -39 9 0 -9 -3 -8 -10 2 -5 8 -5
19 -1 25 4 5 -3 28 -15 50 -13 22 -24 34 -24 26 0 -11 -4 -9 -14 4 -8 11 -12
24 -9 29 4 5 1 6 -4 3 -6 -4 -16 0 -23 8 -7 8 -10 15 -6 15 4 0 -17 22 -45 50
-28 27 -56 47 -62 43 -5 -3 -7 -2 -4 4 7 11 -111 83 -137 83 -9 0 -14 5 -11
10 3 6 -4 11 -17 12 -42 2 -47 3 -54 11 -4 4 -56 7 -116 7 -111 0 -195 -13
-213 -34 -5 -6 -21 -12 -35 -14 -14 -1 -27 -7 -28 -12 -2 -6 -8 -8 -13 -5 -5
4 -19 -5 -32 -17 -13 -13 -30 -22 -37 -20 -7 3 -10 0 -7 -6 4 -5 -1 -16 -10
-23 -12 -10 -14 -10 -9 -1 4 6 3 12 -3 12 -5 0 -12 -9 -16 -19 -4 -12 -12 -18
-21 -14 -8 3 -14 -1 -14 -11 0 -9 -6 -16 -13 -16 -18 0 -79 -81 -73 -97 3 -7
0 -12 -6 -10 -29 6 -73 -128 -45 -139 16 -6 14 -48 -8 -153 -25 -120 -17 -293
19 -415 33 -109 100 -242 168 -332 50 -66 50 -67 31 -83 -11 -9 -47 -37 -80
-62 l-59 -47 -32 38 c-21 26 -28 40 -19 43 7 3 5 6 -5 6 -15 1 -68 58 -68 74
0 3 -13 28 -28 54 -16 26 -37 71 -47 100 -10 29 -23 49 -28 46 -6 -3 -7 -1 -4
5 9 13 -2 44 -13 37 -5 -3 -6 5 -3 17 3 17 2 19 -5 10 -7 -10 -11 -5 -15 18
-4 18 -11 29 -17 25 -7 -4 -10 6 -8 29 1 19 -1 38 -5 42 -4 4 -7 0 -7 -9 0
-10 -7 -17 -15 -17 -8 0 -15 5 -15 12 0 6 -2 9 -5 7 -2 -3 2 -33 11 -68 8 -35
13 -66 10 -68 -8 -9 -47 177 -55 262 -9 113 2 266 28 367 94 366 382 649 710
697 87 13 131 12 226 -4z m1146 -10 c73 -19 204 -78 267 -122 62 -43 168 -149
217 -218 136 -192 193 -400 183 -667 -5 -123 -44 -343 -55 -311 -2 6 0 28 6
48 5 19 6 33 1 30 -5 -3 -11 -1 -14 4 -3 5 1 11 9 15 8 3 15 10 15 16 0 6 -7
4 -16 -4 -8 -9 -20 -16 -25 -16 -5 0 -2 -11 6 -24 17 -26 11 -35 -17 -31 -12
2 -18 -3 -18 -17 0 -14 -5 -18 -16 -14 -9 3 -12 2 -9 -5 4 -5 1 -17 -6 -25 -6
-8 -9 -17 -6 -20 3 -4 -2 -14 -11 -24 -9 -10 -38 -61 -65 -114 -26 -52 -59
-104 -74 -115 -14 -12 -23 -21 -19 -21 4 0 -5 -12 -19 -27 -14 -15 -25 -31
-25 -35 0 -17 -24 -5 -88 44 -37 28 -71 55 -75 58 -5 4 18 43 49 86 122 170
183 339 191 534 5 139 -7 223 -51 332 -14 35 -19 55 -12 46 18 -24 21 -23 21
12 0 17 -4 30 -9 30 -4 0 -6 7 -2 15 3 8 1 15 -5 15 -6 0 -8 4 -5 9 6 10 -22
71 -38 83 -5 3 -11 14 -12 24 -2 9 -15 29 -30 43 -15 14 -24 21 -20 14 4 -7
-1 -9 -13 -6 -11 3 -21 14 -23 25 -4 27 -162 113 -238 129 -59 12 -199 16
-240 6 -111 -27 -176 -53 -212 -84 -15 -13 -18 -12 -27 6 -6 11 -34 47 -61 80
l-49 59 37 25 c187 123 403 163 603 112z m-1116 -405 c33 -11 76 -32 97 -45
l36 -24 -21 -63 c-18 -54 -21 -87 -21 -228 0 -144 2 -173 21 -225 l22 -60 -37
-45 c-72 -89 -310 -311 -436 -405 l-39 -29 -38 42 c-58 66 -125 187 -160 292
-80 239 -35 501 115 666 122 135 296 182 461 124z m1077 -1 c305 -120 418
-525 248 -887 -38 -80 -141 -232 -158 -232 -14 1 -208 152 -290 227 -47 42
-122 118 -167 169 l-82 93 23 69 c46 136 53 319 18 473 -6 25 -1 29 68 64 119
58 233 67 340 24z m283 21 c-3 -5 -11 -10 -16 -10 -6 0 -7 5 -4 10 3 6 11 10
16 10 6 0 7 -4 4 -10z m-950 -136 c9 -15 12 -23 6 -20 -11 7 -35 46 -28 46 3
0 12 -12 22 -26z m-185 -171 c0 3 14 1 30 -4 17 -6 30 -15 30 -20 0 -5 5 -9
11 -9 7 0 18 -8 25 -17 7 -10 18 -18 25 -18 8 0 50 -64 95 -142 44 -78 103
-172 129 -210 87 -122 264 -285 530 -490 332 -254 405 -331 405 -428 0 -31 -2
-34 -17 -27 -10 5 -45 7 -77 5 -55 -3 -64 -1 -105 29 -26 18 -56 45 -69 59
-14 18 -29 25 -41 22 -13 -3 -21 2 -26 16 -3 12 -11 19 -16 16 -5 -4 -9 1 -9
9 0 9 -5 16 -10 16 -6 0 -21 11 -33 23 -12 13 -35 32 -52 43 -16 10 -34 24
-38 31 -4 7 -15 13 -22 13 -8 0 -15 5 -15 11 0 5 -5 7 -12 3 -6 -4 -8 -3 -4 4
3 6 -8 21 -25 34 -17 13 -41 33 -54 46 -14 14 -25 18 -27 11 -4 -13 -59 35
-77 69 -7 12 -16 20 -22 17 -5 -4 -9 -1 -9 5 0 7 -7 9 -16 6 -8 -3 -13 -2 -10
3 3 5 -1 12 -10 15 -9 3 -14 13 -11 21 4 9 1 12 -8 9 -7 -3 -23 4 -34 15 -31
31 -26 38 7 10 l27 -24 -24 27 c-13 15 -27 25 -32 22 -4 -2 -11 1 -16 8 -13
20 -58 55 -48 38 4 -8 -2 -5 -14 8 -12 12 -26 22 -31 22 -6 0 -10 7 -10 15 0
8 -4 14 -9 13 -5 -2 -8 0 -7 3 0 3 -19 26 -44 50 -24 24 -44 46 -45 49 0 3 -8
4 -18 4 -11 -1 -16 4 -13 11 2 7 -4 15 -15 18 -20 5 -24 -2 -11 -19 4 -5 -3 2
-16 16 -34 37 -98 174 -121 260 -24 86 -37 212 -27 265 6 30 10 34 22 25 8 -7
14 -10 14 -7z m-53 -529 c13 -4 21 -10 18 -14 -2 -4 5 -30 15 -59 11 -28 20
-61 19 -74 -1 -27 -51 -112 -66 -112 -6 0 -15 -4 -20 -9 -5 -5 -3 -6 5 -2 6 4
12 2 12 -3 0 -6 -6 -11 -13 -11 -7 0 -23 -13 -35 -30 -13 -16 -28 -29 -35 -27
-6 1 -11 -4 -9 -11 2 -10 -2 -10 -18 -2 -16 9 -18 8 -14 -5 4 -11 2 -13 -9 -9
-10 3 -21 -5 -33 -26 -10 -16 -24 -28 -31 -26 -7 3 -13 1 -13 -4 0 -5 -9 -12
-20 -15 -11 -3 -20 -13 -20 -21 0 -8 -4 -12 -10 -9 -5 3 -10 3 -10 -2 0 -4
-14 -16 -31 -25 -18 -11 -27 -22 -23 -29 4 -8 3 -9 -5 -5 -6 4 -14 0 -17 -8
-3 -9 -12 -16 -19 -16 -7 0 -19 -7 -26 -16 -8 -9 -63 -55 -124 -102 -60 -47
-123 -98 -139 -113 -46 -42 -70 -52 -110 -45 -20 4 -36 11 -36 16 0 12 -33 5
-38 -8 -8 -25 -32 -12 -32 18 0 85 64 155 322 356 191 149 277 222 412 350
110 106 114 108 153 98z m516 -534 c42 -35 77 -68 77 -72 0 -13 -54 -36 -147
-64 -75 -23 -107 -27 -218 -28 -110 -1 -142 3 -205 22 -93 29 -170 62 -170 72
0 4 51 53 113 108 61 55 143 132 182 171 l69 71 111 -108 c60 -59 145 -137
188 -172z m538 -207 c13 -16 12 -17 -3 -4 -17 13 -22 21 -14 21 2 0 10 -8 17
-17z m-1130 -9 c170 -60 426 -59 606 2 42 15 45 14 108 -17 35 -17 81 -47 102
-65 l38 -35 -25 -19 c-30 -23 -207 -82 -316 -105 -105 -23 -331 -23 -434 -1
-136 30 -320 105 -320 131 0 14 104 84 160 108 19 9 36 16 36 16 1 1 21 -6 45
-15z"/>
<path d="M2836 1482 c-3 -5 1 -9 9 -9 8 0 12 4 9 9 -3 4 -7 8 -9 8 -2 0 -6 -4
-9 -8z"/>
<path d="M2784 1393 c10 -11 37 -12 30 -2 -3 5 -12 9 -21 9 -9 0 -13 -3 -9 -7z"/>
<path d="M2761 1374 c0 -11 3 -14 6 -6 3 7 2 16 -1 19 -3 4 -6 -2 -5 -13z"/>
</g>
</svg>
